<svg xmlns="http://www.w3.org/2000/svg" xmlns:xlink="http://www.w3.org/1999/xlink" width="1920" zoomAndPan="magnify" viewBox="0 0 1440 809.999993" height="1080" preserveAspectRatio="xMidYMid meet" version="1.0"><defs><g/><clipPath id="91256fe25f"><path d="M 0.398438 0.28125 L 337 0.28125 L 337 733.71875 L 0.398438 733.71875 Z M 0.398438 0.28125 " clip-rule="nonzero"/></clipPath><clipPath id="fde5daeb40"><rect x="0" width="337" y="0" height="734"/></clipPath><clipPath id="d5e2757857"><rect x="0" width="1344" y="0" height="734"/></clipPath></defs><g transform="matrix(1, 0, 0, 1, 38, 41)"><g clip-path="url(#d5e2757857)"><g clip-path="url(#91256fe25f)"><g transform="matrix(1, 0, 0, 1, 0, 0.000000000000042633)"><g clip-path="url(#fde5daeb40)"><g fill="#ffffff" fill-opacity="1"><g transform="translate(0.437252, 552.90438)"><g><path d="M 257.390625 -341.609375 L 295.875 -280.8125 L 114.890625 -175.125 L 295.875 -71.390625 L 256 -8.640625 L 38.765625 -143.609375 L 38.765625 -206.078125 Z M 257.390625 -341.609375 "/></g></g></g></g></g></g><g fill="#ffffff" fill-opacity="1"><g transform="translate(674.152271, 551.312133)"><g><path d="M 84.546875 62.296875 L 15.859375 30.875 L 249.75 -454.4375 L 317.890625 -423.015625 Z M 84.546875 62.296875 "/></g></g></g><g fill="#ffffff" fill-opacity="1"><g transform="translate(1007.887867, 551.312133)"><g><path d="M 77.59375 -340.6875 L 295.078125 -206.078125 L 295.078125 -143.234375 L 78.421875 -8.625 L 38.65625 -68.421875 L 219.4375 -174.65625 L 38.65625 -277.5625 Z M 77.59375 -340.6875 "/></g></g></g><path fill="#db1a35" d="M 691.027344 142.027344 C 795.253906 284.800781 775.914062 736.5 447.785156 547.386719 C 119.65625 358.269531 362.898438 207.707031 362.898438 207.707031 C 613.796875 -8.539062 691.027344 142.027344 691.027344 142.027344 Z M 691.027344 142.027344 " fill-opacity="1" fill-rule="nonzero"/><path fill="#0097b2" d="M 362.363281 25.84375 C 458.53125 51.902344 444.832031 132.488281 444.832031 132.488281 C 510.105469 67.347656 595.933594 87.628906 595.933594 87.628906 C 578.742188 175.46875 486.332031 154.652344 486.332031 154.652344 C 551.878906 169.558594 568.398438 208.109375 568.398438 208.109375 C 491.4375 259.011719 441.339844 211.332031 441.339844 211.332031 C 444.832031 312.203125 345.167969 357.734375 345.167969 357.734375 C 297.085938 308.976562 345.167969 224.359375 345.167969 224.359375 C 297.085938 276.472656 190.574219 250.417969 190.574219 250.417969 C 238.660156 169.023438 369.210938 175.605469 369.210938 175.605469 C 314.277344 116.910156 362.363281 25.84375 362.363281 25.84375 Z M 362.363281 25.84375 " fill-opacity="1" fill-rule="nonzero"/><path fill="#ffffff" d="M 437.980469 385.132812 C 413.132812 402.59375 417.429688 350.75 417.429688 350.75 C 417.429688 350.75 452.082031 375.195312 437.980469 385.132812 Z M 610.84375 129.9375 C 610.84375 129.9375 606.679688 181.917969 631.390625 164.320312 C 645.628906 154.382812 610.84375 129.9375 610.84375 129.9375 Z M 393.523438 445.441406 C 393.523438 445.441406 389.359375 497.421875 414.074219 479.824219 C 428.308594 469.886719 393.523438 445.441406 393.523438 445.441406 Z M 523.941406 376.804688 C 523.941406 376.804688 519.777344 428.785156 544.492188 411.191406 C 558.730469 401.25 523.941406 376.804688 523.941406 376.804688 Z M 505.941406 249.34375 C 505.941406 249.34375 501.78125 301.320312 526.492188 283.726562 C 540.730469 273.789062 505.941406 249.34375 505.941406 249.34375 Z M 610.84375 287.488281 C 610.84375 287.488281 606.679688 339.46875 631.390625 321.871094 C 645.628906 311.933594 610.84375 287.488281 610.84375 287.488281 Z M 635.152344 426.367188 C 635.152344 426.367188 630.988281 478.347656 655.703125 460.753906 C 669.804688 450.8125 635.152344 426.367188 635.152344 426.367188 Z M 674.371094 211.332031 C 674.371094 211.332031 670.210938 263.3125 694.921875 245.714844 C 709.027344 235.777344 674.371094 211.332031 674.371094 211.332031 Z M 499.765625 498.898438 C 499.765625 498.898438 495.601562 550.878906 520.316406 533.28125 C 534.550781 523.34375 499.765625 498.898438 499.765625 498.898438 Z M 713.054688 331.8125 C 713.054688 331.8125 708.890625 383.789062 733.605469 366.195312 C 747.84375 356.257812 713.054688 331.8125 713.054688 331.8125 Z M 297.488281 331.675781 C 297.488281 331.675781 293.324219 383.65625 318.039062 366.195312 C 332.273438 356.257812 297.488281 331.675781 297.488281 331.675781 Z M 598.753906 537.042969 C 598.753906 537.042969 594.589844 589.023438 619.304688 571.425781 C 633.542969 561.488281 598.753906 537.042969 598.753906 537.042969 Z M 598.753906 537.042969 " fill-opacity="1" fill-rule="nonzero"/></g></g></svg>