<svg xmlns="http://www.w3.org/2000/svg" xmlns:xlink="http://www.w3.org/1999/xlink" width="500" zoomAndPan="magnify" viewBox="0 0 375 374.999991" height="500" preserveAspectRatio="xMidYMid meet" version="1.0"><path fill="#ffffff" d="M 272.113281 107.089844 C 320.222656 172.992188 311.296875 381.480469 159.839844 294.191406 C 8.386719 206.902344 120.660156 137.40625 120.660156 137.40625 C 236.46875 37.59375 272.113281 107.089844 272.113281 107.089844 Z M 272.113281 107.089844 " fill-opacity="1" fill-rule="nonzero"/><path fill="#171717" d="M 120.410156 53.464844 C 164.800781 65.492188 158.476562 102.6875 158.476562 102.6875 C 188.605469 72.621094 228.222656 81.980469 228.222656 81.980469 C 220.285156 122.527344 177.632812 112.917969 177.632812 112.917969 C 207.886719 119.800781 215.511719 137.589844 215.511719 137.589844 C 179.988281 161.085938 156.863281 139.078125 156.863281 139.078125 C 158.476562 185.636719 112.476562 206.65625 112.476562 206.65625 C 90.28125 184.148438 112.476562 145.09375 112.476562 145.09375 C 90.28125 169.148438 41.121094 157.121094 41.121094 157.121094 C 63.3125 119.550781 123.574219 122.589844 123.574219 122.589844 C 98.21875 95.496094 120.410156 53.464844 120.410156 53.464844 Z M 120.410156 53.464844 " fill-opacity="1" fill-rule="nonzero"/><path fill="#171717" d="M 155.316406 219.300781 C 143.847656 227.359375 145.828125 203.429688 145.828125 203.429688 C 145.828125 203.429688 161.824219 214.714844 155.316406 219.300781 Z M 235.101562 101.511719 C 235.101562 101.511719 233.179688 125.503906 244.589844 117.382812 C 251.160156 112.792969 235.101562 101.511719 235.101562 101.511719 Z M 134.792969 247.136719 C 134.792969 247.136719 132.871094 271.128906 144.28125 263.007812 C 150.851562 258.421875 134.792969 247.136719 134.792969 247.136719 Z M 194.992188 215.457031 C 194.992188 215.457031 193.070312 239.449219 204.476562 231.328125 C 211.050781 226.742188 194.992188 215.457031 194.992188 215.457031 Z M 186.683594 156.625 C 186.683594 156.625 184.761719 180.617188 196.171875 172.496094 C 202.742188 167.90625 186.683594 156.625 186.683594 156.625 Z M 235.101562 174.230469 C 235.101562 174.230469 233.179688 198.222656 244.589844 190.101562 C 251.160156 185.515625 235.101562 174.230469 235.101562 174.230469 Z M 246.324219 238.332031 C 246.324219 238.332031 244.402344 262.324219 255.808594 254.203125 C 262.320312 249.617188 246.324219 238.332031 246.324219 238.332031 Z M 264.425781 139.078125 C 264.425781 139.078125 262.503906 163.070312 273.910156 154.949219 C 280.421875 150.363281 264.425781 139.078125 264.425781 139.078125 Z M 183.832031 271.8125 C 183.832031 271.8125 181.910156 295.804688 193.316406 287.683594 C 199.890625 283.09375 183.832031 271.8125 183.832031 271.8125 Z M 282.28125 194.6875 C 282.28125 194.6875 280.359375 218.679688 291.765625 210.558594 C 298.339844 205.972656 282.28125 194.6875 282.28125 194.6875 Z M 90.46875 194.628906 C 90.46875 194.628906 88.546875 218.621094 99.953125 210.558594 C 106.523438 205.972656 90.46875 194.628906 90.46875 194.628906 Z M 229.523438 289.417969 C 229.523438 289.417969 227.601562 313.410156 239.007812 305.289062 C 245.582031 300.699219 229.523438 289.417969 229.523438 289.417969 Z M 229.523438 289.417969 " fill-opacity="1" fill-rule="nonzero"/></svg>