<svg xmlns="http://www.w3.org/2000/svg" xmlns:xlink="http://www.w3.org/1999/xlink" width="500" zoomAndPan="magnify" viewBox="0 0 375 374.999991" height="500" preserveAspectRatio="xMidYMid meet" version="1.0"><defs><g/><clipPath id="63e5dbe009"><rect x="0" width="78" y="0" height="170"/></clipPath></defs><g transform="matrix(1, 0, 0, 1, 37, 111)"><g clip-path="url(#63e5dbe009)"><g fill="#ffffff" fill-opacity="1"><g transform="translate(0.500002, 127.861411)"><g><path d="M 59.234375 -78.609375 L 68.09375 -64.625 L 26.4375 -40.296875 L 68.09375 -16.421875 L 58.90625 -1.984375 L 8.921875 -33.046875 L 8.921875 -47.421875 Z M 59.234375 -78.609375 "/></g></g></g></g></g><g fill="#ffffff" fill-opacity="1"><g transform="translate(192.527336, 238.495026)"><g><path d="M 19.453125 14.34375 L 3.640625 7.109375 L 57.46875 -104.578125 L 73.15625 -97.34375 Z M 19.453125 14.34375 "/></g></g></g><g fill="#ffffff" fill-opacity="1"><g transform="translate(269.322623, 238.495026)"><g><path d="M 17.859375 -78.40625 L 67.90625 -47.421875 L 67.90625 -32.953125 L 18.046875 -1.984375 L 8.890625 -15.75 L 50.5 -40.1875 L 8.890625 -63.875 Z M 17.859375 -78.40625 "/></g></g></g><path fill="#db1a35" d="M 196.410156 144.316406 C 220.394531 177.167969 215.945312 281.109375 140.4375 237.589844 C 64.933594 194.074219 120.90625 159.429688 120.90625 159.429688 C 178.640625 109.667969 196.410156 144.316406 196.410156 144.316406 Z M 196.410156 144.316406 " fill-opacity="1" fill-rule="nonzero"/><path fill="#0097b2" d="M 120.78125 117.582031 C 142.910156 123.578125 139.757812 142.121094 139.757812 142.121094 C 154.777344 127.128906 174.527344 131.796875 174.527344 131.796875 C 170.574219 152.011719 149.308594 147.21875 149.308594 147.21875 C 164.390625 150.652344 168.191406 159.519531 168.191406 159.519531 C 150.484375 171.234375 138.953125 160.261719 138.953125 160.261719 C 139.757812 183.472656 116.824219 193.949219 116.824219 193.949219 C 105.761719 182.730469 116.824219 163.261719 116.824219 163.261719 C 105.761719 175.253906 81.253906 169.257812 81.253906 169.257812 C 92.316406 150.527344 122.359375 152.042969 122.359375 152.042969 C 109.71875 138.535156 120.78125 117.582031 120.78125 117.582031 Z M 120.78125 117.582031 " fill-opacity="1" fill-rule="nonzero"/><path fill="#ffffff" d="M 138.183594 200.257812 C 132.464844 204.273438 133.453125 192.34375 133.453125 192.34375 C 133.453125 192.34375 141.425781 197.96875 138.183594 200.257812 Z M 177.960938 141.535156 C 177.960938 141.535156 177 153.496094 182.6875 149.445312 C 185.964844 147.160156 177.960938 141.535156 177.960938 141.535156 Z M 127.953125 214.132812 C 127.953125 214.132812 126.992188 226.09375 132.679688 222.046875 C 135.957031 219.757812 127.953125 214.132812 127.953125 214.132812 Z M 157.960938 198.339844 C 157.960938 198.339844 157.003906 210.300781 162.691406 206.253906 C 165.96875 203.964844 157.960938 198.339844 157.960938 198.339844 Z M 153.820312 169.007812 C 153.820312 169.007812 152.863281 180.96875 158.550781 176.921875 C 161.824219 174.632812 153.820312 169.007812 153.820312 169.007812 Z M 177.960938 177.785156 C 177.960938 177.785156 177 189.746094 182.6875 185.699219 C 185.964844 183.410156 177.960938 177.785156 177.960938 177.785156 Z M 183.554688 209.746094 C 183.554688 209.746094 182.59375 221.707031 188.28125 217.65625 C 191.527344 215.371094 183.554688 209.746094 183.554688 209.746094 Z M 192.578125 160.261719 C 192.578125 160.261719 191.621094 172.222656 197.308594 168.175781 C 200.550781 165.886719 192.578125 160.261719 192.578125 160.261719 Z M 152.398438 226.433594 C 152.398438 226.433594 151.441406 238.394531 157.128906 234.347656 C 160.402344 232.058594 152.398438 226.433594 152.398438 226.433594 Z M 201.480469 187.984375 C 201.480469 187.984375 200.519531 199.945312 206.207031 195.898438 C 209.484375 193.609375 201.480469 187.984375 201.480469 187.984375 Z M 105.855469 187.957031 C 105.855469 187.957031 104.894531 199.917969 110.582031 195.898438 C 113.859375 193.609375 105.855469 187.957031 105.855469 187.957031 Z M 175.175781 235.210938 C 175.175781 235.210938 174.21875 247.171875 179.90625 243.125 C 183.183594 240.835938 175.175781 235.210938 175.175781 235.210938 Z M 175.175781 235.210938 " fill-opacity="1" fill-rule="nonzero"/></svg>